<?xml version="1.0" encoding="UTF-8"?>
<!DOCTYPE svg PUBLIC "-//W3C//DTD SVG 1.1//EN" "http://www.w3.org/Graphics/SVG/1.1/DTD/svg11.dtd">
<!-- Creator: CorelDRAW 2018 (64 Bit) -->
<svg xmlns="http://www.w3.org/2000/svg" xml:space="preserve" width="12.54mm" height="12.54mm" version="1.1" style="shape-rendering:geometricPrecision; text-rendering:geometricPrecision; image-rendering:optimizeQuality; fill-rule:evenodd; clip-rule:evenodd"
viewBox="0 0 471.34 471.34"
 xmlns:xlink="http://www.w3.org/1999/xlink">
 <defs>
  <style type="text/css">
   <![CDATA[
    .fil1 {fill:url(#id0)}
    .fil0 {fill:url(#id1)}
    .fil2 {fill:url(#id2)}
   ]]>
  </style>
  <radialGradient id="id0" gradientUnits="userSpaceOnUse" gradientTransform="matrix(0.999985 -0 -0 -0.999979 0 471)" cx="235.67" cy="235.67" r="180.86" fx="235.67" fy="235.67">
   <stop offset="0" style="stop-opacity:1; stop-color:#414344"/>
   <stop offset="0.780392" style="stop-opacity:1; stop-color:#2E3030"/>
   <stop offset="1" style="stop-opacity:1; stop-color:#2E3030"/>
  </radialGradient>
  <radialGradient id="id1" gradientUnits="userSpaceOnUse" gradientTransform="matrix(0.999967 -0 -0 -0.999952 0 471)" xlink:href="#id0" cx="235.71" cy="235.63" r="73.55" fx="235.71" fy="235.63">
  </radialGradient>
  <radialGradient id="id2" gradientUnits="userSpaceOnUse" gradientTransform="matrix(0.999991 -0 -0 -1.00001 0 471)" xlink:href="#id0" cx="235.67" cy="235.67" r="402.35" fx="235.67" fy="235.67">
  </radialGradient>
 </defs>
 <g id="Capa_x0020_1">
  <metadata id="CorelCorpID_0Corel-Layer"/>
  <g id="_2744456615072">
   <path class="fil0" d="M235.67 192.55c-23.72,0 -43.04,19.31 -43.04,43.12 0,23.8 19.32,43.04 43.04,43.04 23.81,0 43.12,-19.24 43.12,-43.04 0,-23.81 -19.32,-43.12 -43.12,-43.12z"/>
   <path class="fil1" d="M304.65 182.21c-8.52,0 -15.52,-7 -15.52,-15.51 0,-8.6 7,-15.52 15.52,-15.52 8.6,0 15.51,6.92 15.51,15.52 0,8.51 -6.91,15.51 -15.51,15.51zm-68.98 119.77c-36.65,0 -66.31,-29.65 -66.31,-66.31 0,-36.65 29.66,-66.38 66.31,-66.38 36.66,0 66.39,29.73 66.39,66.38 0,36.66 -29.73,66.31 -66.39,66.31zm100.77 -142.51c-2.36,-6.08 -5.17,-10.34 -9.65,-14.9 -4.57,-4.48 -8.83,-7.3 -14.91,-9.66 -4.48,-1.75 -11.33,-3.88 -23.95,-4.41 -13.61,-0.61 -17.71,-0.76 -52.25,-0.76 -34.44,0 -38.55,0.15 -52.17,0.76 -12.62,0.53 -19.46,2.66 -24.03,4.41 -6.01,2.35 -10.34,5.17 -14.82,9.66 -4.56,4.57 -7.3,8.82 -9.66,14.9 -1.74,4.57 -3.88,11.41 -4.49,23.96 -0.61,13.61 -0.75,17.71 -0.75,52.24 0,34.53 0.15,38.56 0.75,52.17 0.61,12.63 2.74,19.47 4.49,24.03 2.36,6.01 5.1,10.35 9.66,14.84 4.49,4.56 8.81,7.37 14.82,9.66 4.57,1.82 11.41,3.87 24.03,4.49 13.61,0.61 17.72,0.76 52.17,0.76 34.53,0 38.64,-0.16 52.25,-0.76 12.62,-0.62 19.47,-2.66 23.95,-4.49 6.09,-2.29 10.35,-5.1 14.91,-9.66 4.48,-4.49 7.29,-8.82 9.65,-14.84 1.75,-4.56 3.88,-11.4 4.41,-24.03 0.69,-13.61 0.77,-17.64 0.77,-52.17 0,-34.52 -0.08,-38.63 -0.77,-52.24 -0.53,-12.55 -2.66,-19.39 -4.41,-23.96z"/>
   <path class="fil2" d="M364.12 288.9c-0.62,13.77 -2.81,23.2 -6.01,31.41 -3.27,8.52 -7.67,15.67 -14.9,22.9 -7.15,7.15 -14.38,11.56 -22.89,14.9 -8.22,3.19 -17.57,5.4 -31.33,6 -13.76,0.61 -18.17,0.76 -53.31,0.76 -35.05,0 -39.47,-0.15 -53.23,-0.76 -13.76,-0.61 -23.2,-2.81 -31.4,-6 -8.44,-3.35 -15.67,-7.76 -22.89,-14.9 -7.15,-7.23 -11.57,-14.38 -14.91,-22.9 -3.2,-8.21 -5.32,-17.64 -6.01,-31.41 -0.61,-13.76 -0.75,-18.17 -0.75,-53.23 0,-35.13 0.15,-39.46 0.75,-53.3 0.69,-13.77 2.81,-23.12 6.01,-31.34 3.35,-8.51 7.76,-15.73 14.91,-22.89 7.22,-7.22 14.45,-11.64 22.89,-14.91 8.21,-3.19 17.64,-5.4 31.4,-6 13.76,-0.61 18.18,-0.76 53.23,-0.76 35.14,0 39.55,0.15 53.31,0.76 13.76,0.61 23.11,2.81 31.33,6 8.51,3.27 15.75,7.68 22.89,14.91 7.23,7.15 11.63,14.37 14.9,22.89 3.2,8.22 5.4,17.57 6.01,31.34 0.68,13.84 0.76,18.17 0.76,53.3 0,35.06 -0.08,39.47 -0.76,53.23zm38.17 -219.85c-42.59,-42.65 -101.52,-69.05 -166.62,-69.05 -65.02,0 -123.95,26.39 -166.62,69.05 -42.66,42.59 -69.05,101.53 -69.05,166.62 0,130.11 105.55,235.67 235.67,235.67 65.1,0 124.04,-26.39 166.62,-69.04 42.67,-42.67 69.05,-101.61 69.05,-166.63 0,-65.09 -26.38,-124.03 -69.05,-166.62z"/>
  </g>
 </g>
</svg>
