<?xml version="1.0" encoding="UTF-8"?>
<!DOCTYPE svg PUBLIC "-//W3C//DTD SVG 1.1//EN" "http://www.w3.org/Graphics/SVG/1.1/DTD/svg11.dtd">
<!-- Creator: CorelDRAW 2018 (64 Bit) -->
<svg xmlns="http://www.w3.org/2000/svg" xml:space="preserve" width="12.5401mm" height="12.5401mm" version="1.1" style="shape-rendering:geometricPrecision; text-rendering:geometricPrecision; image-rendering:optimizeQuality; fill-rule:evenodd; clip-rule:evenodd"
viewBox="0 0 135.45 135.45"
 xmlns:xlink="http://www.w3.org/1999/xlink">
 <defs>
  <style type="text/css">
   <![CDATA[
    .fil0 {fill:url(#id0)}
   ]]>
  </style>
  <radialGradient id="id0" gradientUnits="userSpaceOnUse" gradientTransform="matrix(1 -0 -0 -1 0 135)" cx="67.72" cy="67.72" r="115.62" fx="67.72" fy="67.72">
   <stop offset="0" style="stop-opacity:1; stop-color:#414344"/>
   <stop offset="0.780392" style="stop-opacity:1; stop-color:#2E3030"/>
   <stop offset="1" style="stop-opacity:1; stop-color:#2E3030"/>
  </radialGradient>
 </defs>
 <g id="Capa_x0020_1">
  <metadata id="CorelCorpID_0Corel-Layer"/>
  <path class="fil0" d="M103.56 97.9l-13.96 0c0,0 0,-17.24 0,-23.77 0,-6.51 -2.47,-10.14 -7.63,-10.14 -5.62,0 -8.54,3.78 -8.54,10.14 0,6.99 0,23.77 0,23.77l-13.44 0 0 -45.28 13.44 0 0 6.1c0,0 4.04,-7.47 13.66,-7.47 9.59,0 16.48,5.86 16.48,17.98 0,12.13 0,28.67 0,28.67zm-59.62 -51.2c-4.57,0 -8.28,-3.74 -8.28,-8.37 0,-4.61 3.71,-8.35 8.28,-8.35 4.59,0 8.3,3.74 8.3,8.35 0,4.63 -3.71,8.37 -8.3,8.37zm7.08 51.2l-14.01 0 0 -45.28 14.01 0 0 45.28zm64.58 -78.08c-12.26,-12.24 -29.18,-19.82 -47.88,-19.82 -18.71,0 -35.62,7.58 -47.88,19.82 -12.26,12.26 -19.84,29.2 -19.84,47.9 0,37.39 30.33,67.72 67.72,67.72 18.71,0 35.62,-7.58 47.88,-19.84 12.26,-12.26 19.84,-29.17 19.84,-47.88 0,-18.71 -7.58,-35.64 -19.84,-47.9z"/>
 </g>
</svg>
