<?xml version="1.0" encoding="UTF-8"?>
<!DOCTYPE svg PUBLIC "-//W3C//DTD SVG 1.1//EN" "http://www.w3.org/Graphics/SVG/1.1/DTD/svg11.dtd">
<!-- Creator: CorelDRAW 2018 (64 Bit) -->
<svg xmlns="http://www.w3.org/2000/svg" xml:space="preserve" width="12.5401mm" height="12.5399mm" version="1.1" style="shape-rendering:geometricPrecision; text-rendering:geometricPrecision; image-rendering:optimizeQuality; fill-rule:evenodd; clip-rule:evenodd"
viewBox="0 0 179.69 179.68"
 xmlns:xlink="http://www.w3.org/1999/xlink">
 <defs>
  <style type="text/css">
   <![CDATA[
    .fil0 {fill:url(#id0)}
   ]]>
  </style>
  <radialGradient id="id0" gradientUnits="userSpaceOnUse" gradientTransform="matrix(0.999997 -0 -0 -1 0 180)" cx="89.84" cy="89.84" r="153.39" fx="89.84" fy="89.84">
   <stop offset="0" style="stop-opacity:1; stop-color:#414344"/>
   <stop offset="0.780392" style="stop-opacity:1; stop-color:#2E3030"/>
   <stop offset="1" style="stop-opacity:1; stop-color:#2E3030"/>
  </radialGradient>
 </defs>
 <g id="Capa_x0020_1">
  <metadata id="CorelCorpID_0Corel-Layer"/>
  <path class="fil0" d="M127.91 70.3c1.25,27.63 -19.37,58.45 -55.84,58.45 -11.07,0 -21.4,-3.28 -30.09,-8.84 10.41,1.25 20.81,-1.65 29.08,-8.12 -8.61,-0.17 -15.86,-5.86 -18.35,-13.66 3.08,0.58 6.12,0.44 8.87,-0.32 -9.45,-1.91 -15.97,-10.41 -15.74,-19.51 2.64,1.45 5.65,2.35 8.9,2.46 -8.76,-5.85 -11.25,-17.39 -6.09,-26.23 9.68,11.88 24.15,19.71 40.47,20.52 -2.84,-12.29 6.47,-24.12 19.13,-24.12 5.66,0 10.76,2.38 14.35,6.2 4.46,-0.87 8.67,-2.52 12.46,-4.78 -1.48,4.61 -4.58,8.46 -8.64,10.87 3.97,-0.46 7.77,-1.54 11.28,-3.07 -2.64,3.94 -5.97,7.39 -9.8,10.15zm25.48 -43.98c-16.27,-16.26 -38.73,-26.32 -63.55,-26.32 -24.82,0 -47.25,10.06 -63.52,26.32 -16.26,16.24 -26.32,38.7 -26.32,63.52 0,49.6 40.24,89.84 89.84,89.84 24.82,0 47.28,-10.06 63.55,-26.32 16.23,-16.27 26.29,-38.73 26.29,-63.52 0,-24.81 -10.06,-47.28 -26.29,-63.52z"/>
 </g>
</svg>
