<?xml version="1.0" encoding="UTF-8"?>
<!DOCTYPE svg PUBLIC "-//W3C//DTD SVG 1.1//EN" "http://www.w3.org/Graphics/SVG/1.1/DTD/svg11.dtd">
<!-- Creator: CorelDRAW 2018 (64 Bit) -->
<svg xmlns="http://www.w3.org/2000/svg" xml:space="preserve" width="12.5401mm" height="12.5399mm" version="1.1" style="shape-rendering:geometricPrecision; text-rendering:geometricPrecision; image-rendering:optimizeQuality; fill-rule:evenodd; clip-rule:evenodd"
viewBox="0 0 264.06 264.06"
 xmlns:xlink="http://www.w3.org/1999/xlink">
 <defs>
  <style type="text/css">
   <![CDATA[
    .fil0 {fill:url(#id0)}
    .fil1 {fill:url(#id1)}
   ]]>
  </style>
  <radialGradient id="id0" gradientUnits="userSpaceOnUse" gradientTransform="matrix(0.996123 -0 -0 -0.996159 1 260)" cx="133.33" cy="130.17" r="102.08" fx="133.33" fy="130.17">
   <stop offset="0" style="stop-opacity:1; stop-color:#414344"/>
   <stop offset="0.780392" style="stop-opacity:1; stop-color:#2E3030"/>
   <stop offset="1" style="stop-opacity:1; stop-color:#2E3030"/>
  </radialGradient>
  <radialGradient id="id1" gradientUnits="userSpaceOnUse" gradientTransform="matrix(0.999984 -0 -0 -1.00002 0 264)" xlink:href="#id0" cx="132.03" cy="132.03" r="225.41" fx="132.03" fy="132.03">
  </radialGradient>
 </defs>
 <g id="Capa_x0020_1">
  <metadata id="CorelCorpID_0Corel-Layer"/>
  <g id="_2744454682720">
   <path class="fil0" d="M168.2 154.65c-1.4,4.05 -8.52,7.92 -11.71,8.22 -3.24,0.3 -3.24,2.56 -20.96,-4.3 -17.72,-6.99 -28.88,-25.01 -29.74,-26.16 -0.68,-0.85 -4.47,-5.88 -6.26,-11.97 -0.51,-1.88 -0.9,-3.88 -0.9,-5.88 0,-8.52 4.52,-12.74 6.09,-14.44 1.62,-1.75 3.49,-2.17 4.69,-2.17 1.15,0 2.3,0.17 3.32,0.17 1.02,0 2.47,-0.6 3.92,2.86 1.45,3.45 4.98,11.97 5.41,12.86 0.43,0.85 0.73,1.83 0.13,3.02 -0.43,0.81 -0.73,1.41 -1.11,2.05l-0.64 0.85c-0.9,0.98 -1.83,2.22 -2.64,3.02 -0.85,0.85 -1.75,1.79 -0.77,3.54 1.02,1.71 4.56,7.37 9.71,11.93 6.65,5.92 12.27,7.71 14.02,8.6 1.75,0.85 2.77,0.72 3.79,-0.43 0.98,-1.15 4.35,-5.03 5.54,-6.78 1.15,-1.74 2.3,-1.44 3.92,-0.85 1.58,0.55 10.14,4.73 11.89,5.62 1.75,0.85 2.9,1.28 3.36,2.01 0.43,0.72 0.43,4.17 -1.07,8.22zm-34.85 -83.8c-31.02,0 -56.58,23.51 -59.52,53.55 -0.17,1.92 -0.29,3.83 -0.29,5.75 0,13 4.26,25.01 11.37,34.81l-7.46 22.03 23.01 -7.33c9.42,6.22 20.7,9.84 32.89,9.84 32.93,0 59.77,-26.62 59.77,-59.34 0,-1.53 -0.08,-3.07 -0.21,-4.6 -2.39,-30.59 -28.2,-54.7 -59.56,-54.7z"/>
   <path class="fil1" d="M204.42 130.15c0,38.98 -31.83,70.59 -71.06,70.59 -12.48,0 -24.2,-3.19 -34.38,-8.81l-39.36 12.52 12.82 -37.83c-6.48,-10.65 -10.18,-23.09 -10.18,-36.47 0,-1.02 0,-2.04 0.04,-3.07 1.66,-37.58 32.85,-67.48 71.06,-67.48 38.64,0 70.09,30.63 71.06,68.76l0 1.79zm20.96 -91.47c-23.9,-23.9 -56.92,-38.68 -93.35,-38.68 -36.47,0 -69.48,14.78 -93.35,38.68 -23.9,23.9 -38.68,56.92 -38.68,93.35 0,72.94 59.09,132.03 132.03,132.03 36.43,0 69.44,-14.79 93.35,-38.69 23.9,-23.86 38.68,-56.88 38.68,-93.34 0,-36.43 -14.78,-69.44 -38.68,-93.35z"/>
  </g>
 </g>
</svg>
